<svg width="0" height="0" class="hidden">
  <symbol fill="none" xmlns="http://www.w3.org/2000/svg" viewBox="0 0 15 16" id="icon-bag">
    <path d="M14.376 15.474l-1.263-11.58a.488.488 0 00-.492-.427h-2.373v-.521C10.248 1.322 8.876 0 7.189 0S4.13 1.322 4.13 2.946v.521H1.757a.488.488 0 00-.492.427L.003 15.474a.466.466 0 00.124.368c.094.1.227.158.367.158h13.39a.5.5 0 00.367-.158.465.465 0 00.125-.368zM5.119 2.946c0-1.1.929-1.994 2.07-1.994 1.141 0 2.07.895 2.07 1.994v.521H5.12v-.521zM1.044 15.048L2.201 4.42H4.13v1.049c0 .263.222.476.495.476a.486.486 0 00.494-.476v-1.05h4.14v1.05c0 .263.222.476.495.476a.486.486 0 00.494-.476v-1.05h1.928l1.159 10.629H1.043z" fill="#353535"></path>
  </symbol>
  <symbol fill="none" xmlns="http://www.w3.org/2000/svg" viewBox="0 0 19 16" id="icon-heart">
    <path d="M16.367 1.154C14.303-.581 11.115-.321 9.14 1.69 7.166-.32 3.977-.585 1.914 1.154c-2.685 2.26-2.292 5.945-.379 7.898l6.263 6.38a1.872 1.872 0 002.685.004l6.262-6.38c1.91-1.954 2.31-5.638-.378-7.902zm-.843 6.695l-6.262 6.38c-.086.086-.157.086-.243 0L2.756 7.85c-1.303-1.33-1.566-3.843.261-5.382 1.389-1.168 3.531-.993 4.874.375l1.25 1.275 1.249-1.275c1.35-1.375 3.492-1.543 4.874-.379 1.824 1.54 1.553 4.067.26 5.385z" fill="#353535"></path>
  </symbol>
  <symbol fill="none" xmlns="http://www.w3.org/2000/svg" viewBox="0 0 32 25" id="icon-mastercard">
    <path d="M26.828 21.055c0 .38-.256.653-.622.653-.378 0-.623-.29-.623-.653 0-.363.245-.653.623-.653.366 0 .622.29.622.653zM9.56 20.402c-.394 0-.622.29-.622.653 0 .362.228.653.622.653.361 0 .606-.274.606-.653-.006-.363-.245-.653-.606-.653zm6.528-.017c-.3 0-.483.195-.528.485h1.061c-.05-.318-.244-.485-.533-.485zm5.989.017c-.378 0-.606.29-.606.653 0 .362.228.653.606.653s.622-.274.622-.653c0-.363-.244-.653-.622-.653zm5.883 1.456c0 .017.017.028.017.062 0 .016-.017.027-.017.061-.017.017-.017.028-.028.045-.016.016-.027.028-.06.028-.017.016-.029.016-.062.016-.017 0-.028 0-.061-.016-.017 0-.028-.017-.044-.028-.017-.017-.028-.028-.028-.045-.017-.028-.017-.045-.017-.061 0-.028 0-.045.017-.062 0-.028.016-.044.028-.061.016-.017.027-.017.044-.028.028-.017.044-.017.061-.017.028 0 .045 0 .061.017.028.017.045.017.061.028.017.011.011.033.028.061zm-.122.078c.028 0 .028-.016.044-.016.017-.017.017-.028.017-.045 0-.017 0-.028-.017-.045-.016 0-.027-.016-.06-.016h-.09v.195h.045v-.078h.016l.062.078h.044l-.061-.073zM32 2.68v19.64A2.673 2.673 0 0129.333 25H2.667A2.673 2.673 0 010 22.321V2.68A2.673 2.673 0 012.667 0h26.666C30.806 0 32 1.2 32 2.679zM3.556 10.47c0 4.269 3.45 7.729 7.694 7.729a7.721 7.721 0 004.25-1.29c-4.05-3.309-4.022-9.553 0-12.862a7.677 7.677 0 00-4.25-1.29c-4.244-.005-7.694 3.46-7.694 7.713zM16 16.54c3.917-3.069 3.9-9.051 0-12.137-3.9 3.086-3.917 9.074 0 12.137zm-7.906 4.258c0-.485-.316-.804-.816-.82-.256 0-.528.078-.711.362-.134-.228-.361-.362-.678-.362a.704.704 0 00-.589.301v-.245h-.456v2.047H5.3c0-1.054-.139-1.685.5-1.685.567 0 .456.57.456 1.685h.438c0-1.02-.138-1.685.5-1.685.567 0 .456.558.456 1.685h.456v-1.283h-.012zm2.495-.764h-.439v.245a.8.8 0 00-.65-.301c-.572 0-1.011.457-1.011 1.077 0 .625.439 1.077 1.011 1.077.289 0 .5-.106.65-.302v.257h.439v-2.053zm2.25 1.428c0-.837-1.272-.457-1.272-.848 0-.318.66-.268 1.027-.062l.184-.362c-.522-.34-1.678-.335-1.678.457 0 .798 1.272.463 1.272.837 0 .352-.75.324-1.15.045l-.194.352c.622.424 1.81.334 1.81-.419zm1.967.519l-.123-.38c-.21.118-.677.246-.677-.228v-.927h.727v-.413h-.727v-.625h-.456v.625h-.422v.408h.422v.932c0 .982.961.803 1.256.608zm.738-.748h1.528c0-.904-.41-1.26-.966-1.26-.59 0-1.012.44-1.012 1.076 0 1.144 1.256 1.334 1.878.793l-.21-.335c-.434.357-1.09.323-1.218-.274zm3.284-1.2c-.256-.111-.645-.1-.845.246v-.245h-.455v2.047h.455v-1.155c0-.647.528-.563.711-.468l.134-.424zm.589 1.022c0-.636.644-.843 1.15-.47l.21-.362c-.644-.508-1.816-.229-1.816.837 0 1.105 1.245 1.328 1.817.837l-.211-.362c-.511.362-1.15.145-1.15-.48zm3.705-1.021h-.455v.245c-.461-.614-1.661-.268-1.661.776 0 1.071 1.244 1.378 1.66.775v.257h.456v-2.053zm1.872 0c-.133-.067-.61-.162-.844.245v-.245h-.439v2.047h.439v-1.155c0-.613.5-.574.711-.468l.133-.424zm2.24-.832h-.44v1.077c-.455-.608-1.66-.285-1.66.776 0 1.082 1.25 1.372 1.66.775v.257h.44v-2.885zm.422-4.19v.256h.044v-.257h.106v-.044h-.256v.044h.106zm.366 6.908c0-.028 0-.062-.016-.09-.017-.016-.028-.044-.045-.061-.017-.017-.044-.028-.061-.045-.028 0-.061-.016-.089-.016-.017 0-.044.016-.078.016a.293.293 0 00-.06.045c-.029.017-.045.045-.045.061-.017.028-.017.062-.017.09 0 .016 0 .044.017.078 0 .017.016.044.044.061.017.017.028.028.061.045a.149.149 0 00.078.017c.028 0 .061 0 .089-.017.017-.017.044-.028.061-.045.017-.017.028-.044.045-.061.016-.034.016-.062.016-.078zm.178-6.96h-.078l-.089.196-.089-.195h-.077v.301h.044v-.229l.089.196h.061l.078-.195v.228h.061v-.301zm.244-4.491c0-4.252-3.45-7.718-7.694-7.718a7.722 7.722 0 00-4.25 1.29c4.006 3.308 4.067 9.57 0 12.862a7.703 7.703 0 004.25 1.289c4.244.006 7.694-3.454 7.694-7.723z" fill="#fff"></path>
  </symbol>
  <symbol fill="none" xmlns="http://www.w3.org/2000/svg" viewBox="0 0 28 30" id="icon-newsletter-mail">
    <path d="M4.667 5.143h18.666c1.284 0 2.334 1.113 2.334 2.472v14.83c0 1.36-1.05 2.472-2.334 2.472H4.667c-1.284 0-2.334-1.112-2.334-2.472V7.615c0-1.36 1.05-2.472 2.334-2.472z" stroke="#231F20" stroke-linecap="round" stroke-linejoin="round"></path>
    <path d="M25.667 7.615L14 16.266 2.333 7.615" stroke="#231F20" stroke-linecap="round" stroke-linejoin="round"></path>
  </symbol>
  <symbol fill="none" xmlns="http://www.w3.org/2000/svg" viewBox="0 0 20 32" id="icon-next">
    <path d="M18.905 17.244L4.663 31.484c-.687.688-1.8.688-2.487 0l-1.66-1.66a1.759 1.759 0 01-.004-2.484L11.8 16 .512 4.66a1.759 1.759 0 01.003-2.484L2.176.516a1.759 1.759 0 012.487 0l14.242 14.24c.686.687.686 1.8 0 2.488z" fill="#353535"></path>
  </symbol>
  <symbol fill="none" xmlns="http://www.w3.org/2000/svg" viewBox="0 0 20 32" id="icon-prev">
    <path d="M.515 14.756L14.757.515a1.759 1.759 0 012.487 0l1.661 1.661c.686.686.687 1.797.003 2.484L7.621 16l11.286 11.34a1.758 1.758 0 01-.003 2.484l-1.66 1.661a1.76 1.76 0 01-2.488 0L.515 17.243a1.759 1.759 0 010-2.487z" fill="#353535"></path>
  </symbol>
  <symbol fill="none" xmlns="http://www.w3.org/2000/svg" viewBox="0 0 14 16" id="icon-user">
    <path d="M9.8 9.5c-.897 0-1.328.5-2.8.5-1.472 0-1.9-.5-2.8-.5A4.201 4.201 0 000 13.7v.8A1.5 1.5 0 001.5 16h11a1.5 1.5 0 001.5-1.5v-.8a4.2 4.2 0 00-4.2-4.2zm2.7 5h-11v-.8c0-1.487 1.212-2.7 2.7-2.7.456 0 1.197.5 2.8.5 1.616 0 2.34-.5 2.8-.5 1.487 0 2.7 1.213 2.7 2.7v.8zM7 9a4.501 4.501 0 000-9 4.501 4.501 0 000 9zm0-7.5c1.653 0 3 1.347 3 3s-1.347 3-3 3-3-1.347-3-3 1.347-3 3-3z" fill="#353535"></path>
  </symbol>
  <symbol fill="none" xmlns="http://www.w3.org/2000/svg" viewBox="0 0 32 25" id="icon-visa">
    <path d="M26.117 11.122s.422 2.075.516 2.51h-1.855c.183-.496.889-2.427.889-2.427-.011.017.183-.508.294-.831l.156.748zM32 2.679V22.32A2.673 2.673 0 0129.333 25H2.667A2.673 2.673 0 010 22.321V2.68A2.673 2.673 0 012.667 0h26.666C30.806 0 32 1.2 32 2.679zM8.472 16.696l3.511-8.66h-2.36L7.438 13.95l-.239-1.2-.778-3.984c-.128-.553-.522-.709-1.01-.731H1.816l-.04.173a8.793 8.793 0 012.345.954l1.99 7.533h2.36zm5.245.012l1.4-8.672h-2.234l-1.394 8.672h2.228zm7.772-2.835c.011-.988-.589-1.741-1.872-2.36-.784-.397-1.261-.665-1.261-1.072.01-.369.405-.748 1.283-.748a3.814 3.814 0 011.661.33l.2.094.306-1.875a5.526 5.526 0 00-2-.368c-2.206 0-3.756 1.183-3.767 2.868-.017 1.245 1.111 1.937 1.955 2.355.862.424 1.156.703 1.156 1.077-.011.58-.7.848-1.339.848-.889 0-1.367-.14-2.094-.463l-.295-.14-.31 1.948c.521.24 1.488.452 2.488.463 2.344.006 3.872-1.16 3.889-2.957zm7.844 2.835l-1.8-8.672h-1.727c-.534 0-.94.156-1.167.72l-3.317 7.952h2.345s.383-1.072.466-1.3H27c.067.306.267 1.3.267 1.3h2.066z" fill="#fff"></path>
  </symbol>
  <symbol fill="none" xmlns="http://www.w3.org/2000/svg" viewBox="0 0 14 16" id="icon-dress">
    <path d="M13.213 12.618l-2.487-4.017a19.06 19.06 0 00-1.73-2.364l-.496-.58V5a2.248 2.248 0 01.885-1.788l.977-.488a.25.25 0 00.083-.38l-1-1.25a.25.25 0 00-.083-.068l-1-.5a.25.25 0 00-.24.01 2.182 2.182 0 01-2.243 0 .25.25 0 00-.24-.01l-1 .5a.25.25 0 00-.084.068l-1 1.25a.25.25 0 00.083.38l.977.488A2.248 2.248 0 015.5 5v.658l-.496.579A19.07 19.07 0 003.274 8.6L.788 12.618a.25.25 0 00.004.27c.218.328.523.587.88.75l-.138.236a.25.25 0 00.123.358l.293.117c.52.209 1.083.287 1.64.227l-.084.369a.25.25 0 00.203.302l.573.095c.63.105 1.269.158 1.908.158h1.62c.64 0 1.278-.053 1.908-.158l.573-.095a.25.25 0 00.203-.302l-.084-.369c.557.06 1.12-.018 1.64-.227l.293-.117a.25.25 0 00.123-.358l-.137-.236c.357-.163.661-.422.88-.75a.25.25 0 00.004-.27zM9.5 2.596v-.633l.362.452-.362.18zM7.988 1.157a1 1 0 01-1.975 0 2.68 2.68 0 001.975 0zM4.5 1.963v.633l-.362-.181.362-.452zm.5.916V1.405l.508-.254a1.5 1.5 0 002.984 0L9 1.405v1.474a2.749 2.749 0 00-.989 1.877 1.392 1.392 0 00-1.01.59 1.392 1.392 0 00-1.012-.59A2.749 2.749 0 005 2.88zm2.308 2.946A.893.893 0 018 5.262v.377a.887.887 0 01-.692.186zM6 5.64v-.377a.892.892 0 01.692.563A.887.887 0 016 5.64zm-3.864 8.246l-.024-.01 1.604-2.749-.432-.252-1.359 2.33a1.615 1.615 0 01-.623-.466l2.397-3.874a18.57 18.57 0 011.684-2.302l.398-.464c.068.046.14.086.214.119L5.301 8.02c-.36.936-.652 1.897-.875 2.875l-.718 3.159a2.92 2.92 0 01-1.572-.17zm2.228.964l-.312-.052.862-3.79c.217-.955.503-1.893.854-2.807l.715-1.86-.018-.007a1.395 1.395 0 00.285-.01V15h-.56c-.612 0-1.222-.05-1.826-.15zm5.272 0c-.603.1-1.214.15-1.826.151h-.56V6.322a1.391 1.391 0 00.285.01l-.018.008.715 1.86c.352.914.637 1.852.854 2.807l.862 3.79-.312.052zm2.816-1.869a1.613 1.613 0 01-.377.224l-1.359-2.33-.432.252 1.604 2.75-.024.009c-.498.2-1.043.259-1.572.17l-.718-3.159a21.052 21.052 0 00-.875-2.875l-.694-1.804a1.39 1.39 0 00.214-.119l.398.464c.62.723 1.182 1.493 1.684 2.302l2.397 3.874a1.61 1.61 0 01-.245.242z" fill="#000"></path>
  </symbol>
  <symbol fill="none" xmlns="http://www.w3.org/2000/svg" viewBox="0 0 20 32" id="icon-arrow-left">
    <path d="M.515 14.756L14.757.515a1.759 1.759 0 012.487 0l1.661 1.661c.686.686.687 1.797.003 2.484L7.621 16l11.286 11.34a1.758 1.758 0 01-.003 2.484l-1.66 1.661a1.76 1.76 0 01-2.488 0L.515 17.243a1.759 1.759 0 010-2.487z" fill="#353535"></path>
  </symbol>
  <symbol fill="none" xmlns="http://www.w3.org/2000/svg" viewBox="0 0 20 32" id="icon-arrow-right">
    <path d="M18.905 17.244L4.663 31.484c-.687.688-1.8.688-2.487 0l-1.66-1.66a1.759 1.759 0 01-.004-2.484L11.8 16 .512 4.66a1.759 1.759 0 01.003-2.484L2.176.516a1.759 1.759 0 012.487 0l14.242 14.24c.686.687.686 1.8 0 2.488z" fill="#353535"></path>
  </symbol>
  <symbol fill="none" xmlns="http://www.w3.org/2000/svg" viewBox="0 0 32 32" id="icon-instagram">
    <path d="M16.004 7.796A8.19 8.19 0 007.8 16a8.19 8.19 0 008.203 8.204A8.19 8.19 0 0024.206 16a8.19 8.19 0 00-8.202-8.204zm0 13.538A5.343 5.343 0 0110.67 16a5.338 5.338 0 015.333-5.334A5.338 5.338 0 0121.336 16a5.343 5.343 0 01-5.332 5.334zM26.454 7.46a1.909 1.909 0 01-1.912 1.914 1.914 1.914 0 111.913-1.914zm5.434 1.942c-.122-2.563-.707-4.834-2.585-6.705C27.433.827 25.163.241 22.6.112c-2.642-.15-10.559-.15-13.2 0C6.844.234 4.574.82 2.697 2.69.819 4.561.24 6.832.112 9.395c-.15 2.642-.15 10.56 0 13.203.122 2.563.707 4.834 2.585 6.705 1.877 1.87 4.14 2.456 6.703 2.584 2.641.15 10.559.15 13.2 0 2.563-.12 4.833-.706 6.703-2.584 1.87-1.871 2.456-4.142 2.585-6.705.15-2.642.15-10.554 0-13.196zm-3.413 16.03a5.4 5.4 0 01-3.041 3.042c-2.106.836-7.103.643-9.43.643-2.328 0-7.332.186-9.43-.643a5.4 5.4 0 01-3.042-3.041c-.835-2.107-.643-7.105-.643-9.433 0-2.328-.185-7.333.643-9.433a5.4 5.4 0 013.041-3.041c2.106-.836 7.103-.643 9.43-.643 2.328 0 7.332-.186 9.431.643a5.4 5.4 0 013.041 3.041c.835 2.107.643 7.105.643 9.433 0 2.328.192 7.333-.643 9.433z" fill="#fff"></path>
  </symbol>
  <symbol fill="none" xmlns="http://www.w3.org/2000/svg" viewBox="0 0 32 32" id="icon-linkedin">
    <path d="M7.163 32H.528V10.636h6.635V32zM3.842 7.721C1.721 7.721 0 5.964 0 3.843A3.844 3.844 0 013.842 0a3.844 3.844 0 013.842 3.843c0 2.121-1.721 3.878-3.842 3.878zM31.992 32h-6.62V21.6c0-2.479-.05-5.657-3.448-5.657-3.45 0-3.978 2.693-3.978 5.478V32h-6.627V10.636h6.363v2.914h.093c.885-1.679 3.049-3.45 6.277-3.45C30.765 10.1 32 14.521 32 20.264V32h-.007z" fill="#fff"></path>
  </symbol>
  <symbol fill="none" xmlns="http://www.w3.org/2000/svg" viewBox="0 0 32 22" id="icon-youtube">
    <path d="M31.331 3.442A3.976 3.976 0 0028.502.658C26.007 0 16 0 16 0S5.993 0 3.498.658a3.977 3.977 0 00-2.83 2.784C0 5.898 0 11.022 0 11.022s0 5.124.669 7.58c.368 1.355 1.452 2.378 2.829 2.74C5.993 22 16 22 16 22s10.007 0 12.502-.658c1.377-.362 2.461-1.385 2.83-2.74.668-2.456.668-7.58.668-7.58s0-5.124-.669-7.58zM12.727 15.675V6.37l8.364 4.652-8.364 4.652z" fill="#fff"></path>
  </symbol>
  <symbol fill="none" xmlns="http://www.w3.org/2000/svg" viewBox="0 0 32 32" id="icon-facebook">
    <path d="M32 3.429V28.57A3.43 3.43 0 0128.571 32H22.48V19.343h4.328l.622-4.829h-4.95V11.43c0-1.4.385-2.35 2.392-2.35h2.558V4.764c-.443-.057-1.958-.193-3.729-.193-3.686 0-6.214 2.25-6.214 6.386v3.564h-4.343v4.829h4.35V32H3.429A3.43 3.43 0 010 28.571V3.43A3.43 3.43 0 013.429 0H28.57A3.43 3.43 0 0132 3.429z" fill="#fff"></path>
  </symbol>
  <symbol fill="none" xmlns="http://www.w3.org/2000/svg" viewBox="0 0 13 13" id="icon-paper-airplane">
    <path d="M11.313.64c.257-.14.539-.163.82-.093.281.07.492.21.656.445.164.235.234.516.188.797l-1.383 9.094c-.07.375-.258.633-.563.797a1.15 1.15 0 01-.539.14c-.164 0-.305-.023-.445-.07l-2.625-1.101-1.008 1.406c-.234.281-.492.422-.82.445-.328.024-.61-.07-.844-.281-.258-.211-.375-.492-.375-.844V9.406L1.703 8.281a.967.967 0 01-.61-.562 1.042 1.042 0 01-.046-.797c.07-.281.234-.492.516-.656L11.313.64zM5.5 11.376l.867-1.172-.867-.351v1.523zm4.992-.68l1.383-9.07-9.75 5.625 2.531 1.055L9.602 3.97c.093-.094.21-.117.351-.07a.426.426 0 01.258.234.33.33 0 01-.047.328L6.883 9.219l3.61 1.476z" fill="#fff"></path>
  </symbol>
  <symbol xmlns="http://www.w3.org/2000/svg" viewBox="0 0 479.058 479.058" id="icon-envelope">
    <path d="M434.146 59.882H44.912C20.146 59.882 0 80.028 0 104.794v269.47c0 24.766 20.146 44.912 44.912 44.912h389.234c24.766 0 44.912-20.146 44.912-44.912v-269.47c0-24.766-20.146-44.912-44.912-44.912zm0 29.941c2.034 0 3.969.422 5.738 1.159L239.529 264.631 39.173 90.982a14.902 14.902 0 015.738-1.159zm0 299.411H44.912c-8.26 0-14.971-6.71-14.971-14.971V122.615l199.778 173.141c2.822 2.441 6.316 3.655 9.81 3.655s6.988-1.213 9.81-3.655l199.778-173.141v251.649c-.001 8.26-6.711 14.97-14.971 14.97z"></path>
  </symbol>
  <symbol fill="none" xmlns="http://www.w3.org/2000/svg" viewBox="0 0 24 24" id="icon-search">
    <path d="M23.854 22.44l-6.972-6.972A9.451 9.451 0 0019 9.5C19 4.262 14.738 0 9.5 0S0 4.262 0 9.5 4.262 19 9.5 19c2.26 0 4.335-.796 5.968-2.118l6.971 6.972a.5.5 0 00.708 0l.707-.707a.5.5 0 000-.707zM9.5 17C5.364 17 2 13.636 2 9.5S5.364 2 9.5 2 17 5.364 17 9.5 13.636 17 9.5 17z" fill="#000"></path>
  </symbol>
</svg>